# xmcd CD database file
#
# Track frame offsets:
#	150
#	18168
#	36699
#	66484
#	85558
#	104367
#	125608
#	147015
#	228928
#	249765
#	273288
#	287897
#	306916
#
# Disc length: 4407 seconds
#
# Revision: 0
# Processed by: cddbd v1.5.2PL0 Copyright (c) Steve Scherf et al.
# Submitted via: CDex 1.70beta2
#
DISCID=b311350d
DTITLE=Schiller - Breathless (Desire) Disc 2
DYEAR=2010
DGENRE=New Age
TTITLE0=Sehnsucht (With Xavier Naidoo)
TTITLE1=Wehmut
TTITLE2=Let Me Love You (With Kim Sanders)
TTITLE3=Ile Aye (With Colbie Caillat)
TTITLE4=You (With Colbie Caillat)
TTITLE5=Herzschlag
TTITLE6=Tired (Mit Jaël)
TTITLE7=Zenit (With Klaus Schulze)
TTITLE8=Porque Te Vas (With Ana Torroja)
TTITLE9=Forever (With Kim Sanders)
TTITLE10=Time For Dream (With Lang Lang)
TTITLE11=Breathe (With September)
TTITLE12=Sommernacht
EXTD=YEAR: 2010
EXTT0=
EXTT1=
EXTT2=
EXTT3=
EXTT4=
EXTT5=
EXTT6=
EXTT7=
EXTT8=
EXTT9=
EXTT10=
EXTT11=
EXTT12=
PLAYORDER=
